<svg xmlns="http://www.w3.org/2000/svg" width="24" height="24" viewBox="0 0 24 24" fill="none" stroke="#0AA66A" stroke-width="1.9" stroke-linecap="round" stroke-linejoin="round"><path d="M12 15.5a3.5 3.5 0 1 0 0-7 3.5 3.5 0 0 0 0 7Z"/><path d="M19.4 15a1.65 1.65 0 0 0 .33 1.82l.06.06-2.83 2.83-.06-.06a1.65 1.65 0 0 0-1.82-.33 1.65 1.65 0 0 0-1 1.51V21h-4v-.09A1.65 1.65 0 0 0 9 19.4a1.65 1.65 0 0 0-1.82.33l-.06.06-2.83-2.83.06-.06A1.65 1.65 0 0 0 4.68 15a1.65 1.65 0 0 0-1.51-1H3v-4h.09A1.65 1.65 0 0 0 4.6 9a1.65 1.65 0 0 0-.33-1.82l-.06-.06 2.83-2.83.06.06A1.65 1.65 0 0 0 9 4.68a1.65 1.65 0 0 0 1-1.51V3h4v.09A1.65 1.65 0 0 0 15 4.6a1.65 1.65 0 0 0 1.82-.33l.06-.06 2.83 2.83-.06.06A1.65 1.65 0 0 0 19.32 9a1.65 1.65 0 0 0 1.51 1H21v4h-.09A1.65 1.65 0 0 0 19.4 15Z"/></svg>